<?xml version="1.0"?>
<svg width="200" height="100.19465" xmlns="http://www.w3.org/2000/svg">
 <metadata id="metadata8">image/svg+xml</metadata>
 <g>
  <title>Layer 1</title>
  <g id="g3030">
   <path d="m0.68928,13.3214c0,-7.18842 5.09281,-13.07102 13.27652,-13.07102c8.615899,0 13.2354,6.17138 13.2354,13.42032c0,7.971701 -5.837101,12.803801 -13.1738,12.803801c-7.98514,0 -13.33813,-5.4468 -13.33813,-13.153101l0.00001,0z" id="path3018" fill="#00beca"/>
   <path d="m0.75732,37.393501c0,-1.223701 0.68612,-2.108101 2.05598,-2.108101l22.366401,0c1.181499,0 1.9627,0.936501 1.9627,2.087502l0,34.289001c0,5.846199 3.328699,12.645699 13.6024,12.645699c10.005501,0 15.1814,-6.225899 15.1814,-18.937004l0,-2.672096l10.622597,20.217201l1.370605,6.853294c0,0 -10.422104,10.075706 -29.312103,10.075706c-9.375599,0 -37.84997,-1.5382 -37.84997,-32.691505l0,-29.759697l-0.00001,0z" id="path3020" fill="#00beca"/>
   <path d="m67.919403,89.769096l10.622597,-27.413197l3.426697,-3.426601l0,4.797302c0,11.538803 5.597702,20.416397 20.082306,20.416397c13.208,0 22.503998,-7.481995 22.503998,-19.092598c0,-5.9016 -2.856003,-10.584198 -2.856003,-10.584198l14.982002,7.4809l1.313004,18.227398c0,0 -9.977005,19.567398 -38.100906,19.567398c-21.961197,0 -31.973694,-9.972801 -31.973694,-9.972801l0,0z" id="path3024" fill="#8c7b11"/>
   <path d="m67.919403,89.769096c0,0 -11.993202,-9.1651 -11.993202,-26.302597l0,-49.083499c0,-3.9468 2.546799,-7.36704 13.165001,-7.36704c11.604095,0 12.877495,4.51684 12.877495,7.90554l0,20.363999l20.559303,0c1.484001,0 2.056,0.8671 2.056,2.2411l0,12.150799c0,1.148903 -0.468002,2.056 -1.817001,2.056l-13.602402,0c-3.527397,0 -7.1959,-1.370697 -7.1959,-1.370697l0,8.2239c0,10.254097 -2.649696,20.728195 -14.049294,31.182495l0,0z" id="path3022" fill="#FFFFFF"/>
   <path d="m137.994202,80.174393l3.264557,-35.868343l1.475174,-6.241619c0,0 6.515411,9.499329 23.113693,40.058434c10.541718,-19.167244 17.26445,-42.071243 17.26445,-42.071243c0.471817,-1.565632 1.721878,-1.944622 3.531479,-1.467621l11.37886,3.516762c1.381256,0.493099 2.131012,1.038609 1.352829,3.607559c-9.464401,27.54332 -24.284943,50.263649 -24.284943,50.263649c-2.853348,4.228821 -5.760178,7.818573 -15.389709,7.818573c-7.769226,0 -10.474899,-2.646049 -13.180908,-6.685043l-8.525482,-12.931107z" id="path3028" fill="#ffab00"/>
   <path d="m137.994003,80.1745l-17.739006,-27.951599c-1.063995,-1.992199 -1.875999,-3.200401 -1.875999,-5.566399c0.014,-3.477802 1.820999,-5.992401 7.948006,-9.831501c1.324997,-0.869999 6.096992,-2.7668 9.96299,-2.7668c5.215012,0 9.105011,5.3969 9.105011,16.688099c0,18.372002 -7.401001,29.4282 -7.401001,29.4282l0,0z" id="path3026" fill="#c80063"/>
  </g>
 </g>
</svg>